<svg width="16" height="12" viewBox="0 0 16 12" fill="none" xmlns="http://www.w3.org/2000/svg">
<path fill-rule="evenodd" clip-rule="evenodd" d="M8.33045 2.60814C10.5463 2.60823 12.6775 3.45967 14.2835 4.98647C14.4044 5.10435 14.5977 5.10286 14.7168 4.98314L15.8728 3.81647C15.9331 3.75575 15.9667 3.6735 15.9662 3.58792C15.9657 3.50234 15.9311 3.42048 15.8701 3.36047C11.655 -0.679076 5.00522 -0.679076 0.79012 3.36047C0.729062 3.42044 0.694418 3.50227 0.693855 3.58785C0.693292 3.67343 0.726856 3.7557 0.78712 3.81647L1.94345 4.98314C2.06248 5.10304 2.25593 5.10453 2.37679 4.98647C3.98294 3.45957 6.11434 2.60813 8.33045 2.60814ZM8.33045 6.4038C9.54794 6.40373 10.722 6.85626 11.6245 7.67347C11.7465 7.78945 11.9388 7.78694 12.0578 7.6678L13.2125 6.50114C13.2733 6.43994 13.307 6.35693 13.3061 6.27066C13.3052 6.1844 13.2698 6.10208 13.2078 6.04214C10.4596 3.48576 6.20365 3.48576 3.45545 6.04214C3.39338 6.10208 3.35796 6.18444 3.35714 6.27073C3.35633 6.35702 3.39019 6.44003 3.45112 6.50114L4.60545 7.6678C4.72444 7.78694 4.91672 7.78945 5.03879 7.67347C5.94066 6.8568 7.11377 6.40431 8.33045 6.4038ZM10.6434 8.95762C10.6452 9.04413 10.6112 9.12753 10.5495 9.18814L8.55212 11.2038C8.49357 11.263 8.41374 11.2964 8.33045 11.2964C8.24716 11.2964 8.16734 11.263 8.10879 11.2038L6.11112 9.18814C6.04941 9.12749 6.01546 9.04406 6.01729 8.95755C6.01912 8.87104 6.05657 8.78913 6.12079 8.73114C7.39636 7.65225 9.26455 7.65225 10.5401 8.73114C10.6043 8.78917 10.6417 8.87112 10.6434 8.95762Z" fill="white"/>
</svg>
